<svg xmlns="http://www.w3.org/2000/svg" xmlns:xlink="http://www.w3.org/1999/xlink" viewBox="0 0 512 348.391"><defs><path id="a" d="M0 0h512v348.391H0z"/></defs><clipPath id="b"><use xlink:href="#a" overflow="visible"/></clipPath><path d="M429.515 302.468c-.223 1.957-1.376 2.941-3.449 2.941-1.933 0-3.009-.983-3.227-2.941h1.066c.16.494.334.838.518 1.037.393.446.998.669 1.817.669.756 0 1.284-.155 1.575-.475.291-.315.514-.722.659-1.231h1.041zm-7.52 15.339h.044l7.771-12.548h2.485v15.532h-2.03v-12.548h-.044l-7.897 12.548h-2.359v-15.532h2.03v12.548zm-18.754 1.192h4.258c2.044 0 3.072-.867 3.072-2.597 0-1.865-1.056-2.791-3.159-2.791h-4.171v5.388zm13.425 1.792h-2.093v-15.533h2.093v15.533zm-13.425-8.977h4.884c1.056 0 1.933.223 2.626.669.693.446 1.197 1.017 1.512 1.725.315.702.47 1.444.47 2.219 0 .833-.184 1.584-.552 2.248a3.963 3.963 0 0 1-1.608 1.56c-.698.373-1.512.557-2.447.557h-6.982V305.26h2.098v6.554zm-7.509-6.555h2.093v15.532h-2.093v-7.248h-8.115v7.248h-2.093v-15.532h2.093v6.424h8.115v-6.424zm-22.548 13.74h4.501c2.044 0 3.071-.867 3.071-2.597 0-1.865-1.056-2.791-3.159-2.791h-4.414v5.388zm0-7.185h5.126c1.056 0 1.933.223 2.626.669.693.446 1.197 1.017 1.511 1.725.31.702.47 1.444.47 2.219 0 .833-.184 1.584-.552 2.248a3.96 3.96 0 0 1-1.609 1.56c-.698.373-1.511.557-2.446.557h-7.219V305.26h2.093v6.554zm-13.74-4.695v9.477c0 1.206-.194 2.146-.586 2.81-.392.664-.892 1.114-1.492 1.342-.606.233-1.289.349-2.059.349v-1.885c.843 0 1.41-.223 1.705-.673.291-.451.441-1.1.441-1.948v-11.332h10.387v15.532h-2.098v-13.672h-6.298zm-9.331 7.292l-2.292-6.841h-.039l-2.49 6.841h4.821zm-5.47 1.86l-1.623 4.52h-2.161l5.838-15.532h2.384l5.62 15.532h-2.287l-1.541-4.52h-6.23zm-12.344-3.808h4.409c2.107 0 3.159-.93 3.159-2.786 0-1.739-1.022-2.602-3.067-2.602h-4.501v5.388zm0 8.353h-2.098v-15.537h7.219c.935 0 1.749.189 2.451.557.693.378 1.23.896 1.604 1.565.373.664.552 1.415.552 2.253 0 1.235-.378 2.316-1.138 3.231-.756.916-1.914 1.371-3.469 1.371h-5.121v6.56zm-5.068-.025h-11.463v-15.532h11.313v1.86h-9.215v4.753h8.498v1.865h-8.498v5.194h9.365v1.86zm-24.152-1.86h7.291v-11.812h-6.269v7.616c.001 1.59-.338 2.99-1.022 4.196m-1.119 1.86v2.902h-1.904v-4.762h1.037c.368-.601.63-1.231.785-1.885.155-.659.232-1.424.232-2.311v-9.476h10.358v13.672h1.197v4.762h-1.899v-2.902h-9.806zm-3.595 0h-11.458v-15.532h11.313v1.86H289v4.753h8.503v1.865H289v5.194h9.365v1.86zm-23.153-3.246v-9.04c-.988 0-1.86.155-2.616.47a3.722 3.722 0 0 0-1.778 1.487c-.431.678-.644 1.536-.644 2.568 0 1.027.213 1.88.644 2.553a3.732 3.732 0 0 0 1.778 1.492c.756.315 1.628.47 2.616.47m2.074-9.04v9.04c.998 0 1.87-.155 2.631-.47a3.732 3.732 0 0 0 1.778-1.492c.426-.678.639-1.531.639-2.553 0-1.027-.213-1.885-.639-2.563a3.71 3.71 0 0 0-1.778-1.492c-.761-.315-1.633-.47-2.631-.47m0-1.623c1.177 0 2.224.165 3.13.494.911.329 1.667.785 2.272 1.357a5.745 5.745 0 0 1 1.361 1.972c.3.736.451 1.512.451 2.325a6.06 6.06 0 0 1-.451 2.316c-.3.741-.756 1.4-1.366 1.982-.606.581-1.366 1.037-2.267 1.366-.901.334-1.948.499-3.13.499v1.599h-2.073v-1.599c-1.177 0-2.219-.165-3.125-.499-.906-.329-1.662-.785-2.267-1.361a5.704 5.704 0 0 1-1.357-1.977 6.14 6.14 0 0 1-.451-2.326c0-.819.15-1.589.455-2.335.305-.736.761-1.4 1.361-1.977.601-.572 1.357-1.027 2.258-1.361.906-.334 1.948-.499 3.125-.499v-1.599h2.073v1.623zm227.939-30.551c-.223 1.957-1.371 2.941-3.445 2.941-1.933 0-3.009-.983-3.231-2.941h1.066c.165.494.334.838.518 1.037.392.446.998.669 1.817.669.761 0 1.284-.16 1.579-.475.291-.32.509-.727.654-1.231h1.042zm-7.52 15.338h.048l7.771-12.553h2.485v15.537h-2.03V282.1h-.044l-7.902 12.553h-2.359v-15.537h2.03v12.553zm-15.619 0h.048l7.771-12.553h2.485v15.537h-2.03V282.1h-.049l-7.897 12.553h-2.359v-15.537h2.03v12.553zm-14.36 2.985h-2.093v-15.537h2.093v7.529l7.524-7.529h2.902l-6.468 6.274 6.642 9.263h-2.723l-5.436-7.795-2.442 2.34v5.455zm-6.817-10.863c-.257-1.216-.804-2.059-1.637-2.524a5.463 5.463 0 0 0-2.718-.698c-.954 0-1.822.233-2.587.702-.77.465-1.381 1.163-1.827 2.093-.441.925-.664 2.049-.664 3.367 0 1.977.402 3.551 1.211 4.719.804 1.168 2.122 1.754 3.939 1.754.552 0 1.124-.116 1.71-.354.586-.228 1.134-.664 1.638-1.298.504-.635.863-1.507 1.085-2.611h2.035c-.257 1.754-.824 3.086-1.701 3.997-.877.911-1.764 1.492-2.665 1.744-.901.257-1.71.383-2.432.383a7.32 7.32 0 0 1-2.621-.47 6.202 6.202 0 0 1-2.229-1.463c-.664-.669-1.182-1.531-1.565-2.592-.383-1.061-.572-2.306-.572-3.74 0-1.197.165-2.296.499-3.285a7.216 7.216 0 0 1 1.439-2.568 6.32 6.32 0 0 1 2.287-1.657c.901-.388 1.904-.586 3.023-.586 1.264 0 2.364.237 3.294.707.93.47 1.652 1.09 2.165 1.865.514.775.824 1.613.926 2.514h-2.033zm-19.951 1.88c.988 0 1.875-.208 2.66-.625.78-.417 1.167-1.008 1.167-1.773 0-1.046-.368-1.759-1.114-2.151-.746-.388-1.599-.581-2.563-.581-1.056 0-1.967.252-2.742.751-.77.504-1.187 1.308-1.235 2.413h-1.977c0-.703.184-1.429.543-2.185.363-.756 1.008-1.405 1.933-1.952.93-.547 2.166-.819 3.716-.819 1.051 0 1.996.179 2.834.547.838.368 1.497.882 1.962 1.55.465.664.698 1.424.698 2.272 0 .988-.305 1.739-.906 2.258-.601.518-1.25.848-1.943.988.519.082 1.042.286 1.57.601s.969.741 1.327 1.279c.358.543.538 1.163.538 1.865 0 1.1-.296 2.025-.892 2.771-.586.751-1.352 1.303-2.292 1.657a8.387 8.387 0 0 1-2.96.528c-1.313 0-2.403-.199-3.27-.596-.858-.397-1.517-.887-1.967-1.478-.446-.586-.756-1.172-.921-1.764-.165-.591-.247-1.124-.247-1.594h1.972c0 1.289.422 2.219 1.269 2.781.843.567 1.894.853 3.149.853.601 0 1.211-.107 1.841-.325a3.74 3.74 0 0 0 1.57-1.022c.421-.46.63-1.037.63-1.725 0-1.037-.436-1.778-1.308-2.224-.877-.451-1.943-.678-3.188-.678-.625 0-1.139.014-1.541.048v-1.71c.374.026.936.04 1.687.04m-11.492 2.597l-2.291-6.841h-.044l-2.485 6.841h4.82zm-5.47 1.865l-1.623 4.52h-2.166l5.838-15.537h2.384l5.625 15.537h-2.292l-1.541-4.52h-6.225zm-13.546 4.521h-2.093v-15.537h2.093v7.529l7.529-7.529h2.897l-6.468 6.274 6.647 9.263h-2.728l-5.436-7.795-2.442 2.34v5.455zm-14.433-1.798h4.477c1.071 0 1.89-.252 2.451-.756.557-.504.838-1.197.838-2.083 0-1.739-1.211-2.611-3.634-2.611h-4.133v5.45zm0-7.165h3.784c1.066 0 1.875-.189 2.422-.567.552-.383.829-1.032.829-1.938 0-.751-.252-1.318-.761-1.7-.509-.383-1.327-.572-2.461-.572h-3.813v4.777zm-2.093-6.575h6.836c.93 0 1.73.179 2.388.528.659.349 1.158.819 1.492 1.41a3.95 3.95 0 0 1 .504 1.977c0 1.512-.693 2.597-2.074 3.246.814.334 1.483.756 2.016 1.274.528.519.79 1.357.79 2.515 0 .848-.198 1.613-.606 2.311-.412.698-1.013 1.25-1.817 1.662-.799.407-1.749.615-2.849.615h-6.681v-15.538zm-6.545 9.152l-2.291-6.841h-.039l-2.49 6.841h4.82zm-5.47 1.865l-1.623 4.52h-2.165l5.838-15.537h2.389l5.62 15.537h-2.292l-1.541-4.52h-6.226zm-13.546 4.521h-2.093v-15.537h2.093v7.529l7.529-7.529h2.897l-6.468 6.274 6.642 9.263h-2.723l-5.436-7.795-2.442 2.34v5.455zm-4.694-5.02h-5.305v-1.953h5.305v1.953zm-14.671-9.064c-1.1 0-2.059.266-2.878.804-.819.543-1.449 1.289-1.885 2.243-.436.954-.654 2.044-.654 3.27 0 1.221.223 2.311.659 3.27.436.954 1.066 1.705 1.885 2.243.824.538 1.778.804 2.873.804 1.095 0 2.05-.267 2.873-.804.819-.538 1.449-1.289 1.885-2.243.436-.959.659-2.049.659-3.27 0-1.226-.218-2.316-.654-3.27-.436-.954-1.066-1.701-1.885-2.243-.818-.538-1.778-.804-2.878-.804m0 14.495c-1.376 0-2.553-.257-3.532-.766-.978-.509-1.759-1.172-2.345-1.991a8.289 8.289 0 0 1-1.255-2.636c-.252-.94-.378-1.865-.378-2.786s.126-1.851.378-2.791a8.289 8.289 0 0 1 1.255-2.636c.581-.819 1.361-1.483 2.345-1.991.984-.509 2.161-.765 3.532-.765s2.548.252 3.527.761c.984.504 1.764 1.168 2.35 1.991a8.335 8.335 0 0 1 1.255 2.641c.252.94.378 1.87.378 2.791s-.126 1.846-.378 2.786a8.277 8.277 0 0 1-1.26 2.64c-.581.819-1.366 1.483-2.345 1.991-.978.51-2.151.761-3.527.761m-19.103-8.745h4.409c2.107 0 3.159-.93 3.159-2.786 0-1.734-1.022-2.602-3.067-2.602h-4.501v5.388zm0 8.353h-2.098V279.14h7.223c.935 0 1.749.184 2.447.557a3.892 3.892 0 0 1 1.604 1.56c.373.669.557 1.42.557 2.258 0 1.235-.378 2.316-1.139 3.231-.761.916-1.919 1.371-3.469 1.371h-5.126v6.556zm-5.067-.019H313.37v-15.537h11.313v1.86h-9.22v4.758h8.503v1.86h-8.503v5.198h9.365v1.861zm-23.798-1.798h4.477c1.071 0 1.89-.252 2.451-.756.557-.504.838-1.197.838-2.083 0-1.739-1.211-2.611-3.634-2.611h-4.133v5.45zm0-7.165h3.784c1.066 0 1.87-.189 2.422-.567.552-.383.829-1.032.829-1.938 0-.751-.252-1.318-.761-1.7-.509-.383-1.328-.572-2.461-.572h-3.813v4.777zm-2.093-6.575h6.836c.93 0 1.73.179 2.389.528.659.349 1.158.819 1.492 1.41a3.95 3.95 0 0 1 .504 1.977c0 1.512-.693 2.597-2.074 3.246.814.334 1.483.756 2.016 1.274.528.519.79 1.357.79 2.515 0 .848-.199 1.613-.606 2.311-.412.698-1.012 1.25-1.817 1.662-.8.407-1.749.615-2.849.615h-6.681v-15.538zm-2.97 15.538h-11.463v-15.537h11.312v1.86h-9.215v4.758h8.498v1.86h-8.498v5.198h9.365v1.861zm-16.181-10.863c-.262-1.216-.809-2.059-1.638-2.524a5.463 5.463 0 0 0-2.718-.698c-.954 0-1.822.233-2.592.702-.77.465-1.376 1.163-1.822 2.093-.446.925-.669 2.049-.669 3.367 0 1.977.402 3.551 1.211 4.719.809 1.168 2.122 1.754 3.944 1.754.552 0 1.119-.116 1.705-.354.591-.228 1.138-.664 1.638-1.298.509-.635.867-1.507 1.085-2.611h2.035c-.257 1.754-.824 3.086-1.696 3.997-.877.911-1.764 1.492-2.665 1.744-.906.257-1.715.383-2.432.383a7.3 7.3 0 0 1-2.621-.47 6.156 6.156 0 0 1-2.228-1.463c-.664-.669-1.182-1.531-1.565-2.592-.383-1.061-.572-2.306-.572-3.74 0-1.197.165-2.296.494-3.285a7.371 7.371 0 0 1 1.439-2.568 6.347 6.347 0 0 1 2.292-1.657c.896-.388 1.904-.586 3.018-.586 1.269 0 2.369.237 3.299.707.93.47 1.652 1.09 2.161 1.865.514.775.824 1.613.93 2.514h-2.033zm140.121 47.591h12.611v1.86h-5.256v13.672h-2.093v-13.672h-5.261v-1.86zm-2.035 15.533h-11.458v-15.532h11.308v1.86h-9.215V338h8.498v1.856h-8.498v5.198h9.365v1.861zm-26.443-15.533h12.616v1.86h-5.261v13.672h-2.093v-13.672h-5.261v-1.86zM378.77 343.93h.048l7.771-12.548h2.481v15.532h-2.03v-12.548h-.039l-7.902 12.548h-2.359v-15.532h2.03v12.548zm-7.151-7.877c-.261-1.216-.809-2.059-1.637-2.524a5.479 5.479 0 0 0-2.723-.698c-.955 0-1.817.233-2.587.703-.77.47-1.376 1.163-1.827 2.093-.441.93-.664 2.049-.664 3.372 0 1.977.402 3.551 1.211 4.714.804 1.168 2.122 1.754 3.939 1.754a4.62 4.62 0 0 0 1.71-.349c.586-.233 1.134-.664 1.638-1.303.504-.635.867-1.507 1.085-2.611h2.035c-.257 1.754-.824 3.086-1.701 3.997-.877.911-1.763 1.492-2.665 1.749-.901.252-1.71.378-2.432.378a7.293 7.293 0 0 1-2.616-.47 6.217 6.217 0 0 1-2.233-1.463c-.664-.669-1.182-1.526-1.565-2.587-.378-1.061-.572-2.311-.572-3.745 0-1.197.165-2.292.499-3.285.325-.998.809-1.851 1.439-2.563a6.4 6.4 0 0 1 2.287-1.662c.901-.388 1.904-.581 3.023-.581 1.264 0 2.364.233 3.294.703.93.47 1.652 1.095 2.166 1.865a5.65 5.65 0 0 1 .925 2.515h-2.029zm-23.653 2.533h4.414c2.107 0 3.159-.93 3.159-2.791 0-1.734-1.022-2.597-3.071-2.597h-4.501v5.388zm0 8.353h-2.093v-15.537h7.219c.935 0 1.749.189 2.451.562a3.915 3.915 0 0 1 1.604 1.56c.368.669.552 1.415.552 2.253 0 1.235-.378 2.316-1.138 3.231-.756.916-1.914 1.371-3.469 1.371h-5.126v6.56zm-5.474-.024h-11.458v-15.532h11.312v1.86h-9.219V338h8.503v1.856h-8.503v5.198h9.365v1.861zm-24.205-1.798h4.472c1.075 0 1.89-.252 2.451-.756.557-.499.838-1.197.838-2.078 0-1.744-1.211-2.616-3.634-2.616h-4.128v5.45zm0-7.16h3.784c1.061 0 1.87-.194 2.422-.572.552-.383.824-1.027.824-1.938 0-.751-.252-1.313-.761-1.696s-1.327-.576-2.461-.576h-3.808v4.782zm-2.098-6.575h6.841c.926 0 1.725.174 2.384.523.659.354 1.158.819 1.492 1.41.339.591.504 1.255.504 1.977 0 1.517-.688 2.597-2.068 3.251.809.329 1.478.751 2.01 1.274.528.513.795 1.357.795 2.514 0 .843-.203 1.613-.611 2.306-.407.698-1.007 1.255-1.817 1.662-.799.412-1.749.615-2.849.615h-6.681v-15.532zm-14.006 12.548h.043l7.776-12.548h2.48v15.532h-2.03v-12.548h-.043l-7.902 12.548h-2.355v-15.532h2.03v12.548zm-7.844-12.548h2.093v15.532h-2.093v-7.248h-8.115v7.248h-2.098v-15.532h2.098v6.424h8.115v-6.424zm-21.08 15.789c-.16.044-.388.063-.693.063a5.578 5.578 0 0 1-1.4-.237v-1.919c.354.199.702.3 1.056.3.552 0 .959-.252 1.216-.756l.925-1.86-6.356-11.38h2.611l4.869 9.084 3.939-9.084h2.403l-6.405 13.696c-.58 1.207-1.302 1.905-2.165 2.093M46.706 302.163a20.853 20.853 0 0 0-1.604-4.128 16.793 16.793 0 0 0-2.321-3.372c-.824-.925-1.986-1.633-3.479-2.107-1.574-.504-3.522-.756-5.848-.756-1.919 0-3.735.397-5.441 1.192-1.725.799-3.357 2.016-4.888 3.638v.005c-1.502 1.579-2.64 3.745-3.406 6.478-.785 2.81-1.182 6.216-1.182 10.218 0 1.991.136 3.886.407 5.688a29.68 29.68 0 0 0 1.216 5.082c.528 1.574 1.211 2.994 2.044 4.254a14.673 14.673 0 0 0 2.892 3.231l.01.005a11.135 11.135 0 0 0 3.682 2.035c1.395.46 2.955.688 4.665.688 1.187 0 2.301-.107 3.328-.32a13.029 13.029 0 0 0 2.892-.95 11.25 11.25 0 0 0 2.447-1.574v-.005a11.74 11.74 0 0 0 2.01-2.214v-.005a13.897 13.897 0 0 0 1.546-2.81c.426-1.037.761-2.17 1.003-3.391l.184-.94h15.916l-.266 1.376c-.484 2.476-1.153 4.796-2.001 6.952a32.68 32.68 0 0 1-3.139 6.036 25.77 25.77 0 0 1-4.356 5.019 26.648 26.648 0 0 1-5.518 3.755l-.005.005c-2.05 1.037-4.268 1.817-6.657 2.335-2.374.514-4.927.77-7.64.77-2.999 0-5.833-.334-8.503-1.008a29.2 29.2 0 0 1-7.505-3.047 25.814 25.814 0 0 1-6.25-5.068c-1.817-2.01-3.377-4.355-4.67-7.015-1.289-2.645-2.258-5.572-2.902-8.769-.644-3.178-.964-6.608-.964-10.285 0-3.731.329-7.204.998-10.407.669-3.222 1.676-6.168 3.023-8.837h.005c1.342-2.679 2.941-5.029 4.787-7.04a26.275 26.275 0 0 1 6.347-5.063 29.694 29.694 0 0 1 7.476-3.043c2.636-.673 5.417-1.012 8.343-1.012 4.733 0 8.943.736 12.606 2.209h-.005a29.786 29.786 0 0 1 5 2.534 23.477 23.477 0 0 1 4.05 3.265 27.661 27.661 0 0 1 3.101 3.726 23.518 23.518 0 0 1 2.253 4.026 26.344 26.344 0 0 1 1.448 4.128c.363 1.386.591 2.762.693 4.123l.097 1.245H46.939l-.233-.852zm124.735-15.683c1.875.058 3.764.262 5.673.61a43.58 43.58 0 0 1 6.88 1.865 26.032 26.032 0 0 1 6.477 3.396 27.485 27.485 0 0 1 5.368 5.126v.005c1.628 2.035 2.849 4.36 3.658 6.972.804 2.597 1.206 5.47 1.206 8.619 0 2.413-.237 4.665-.717 6.749-.484 2.093-1.211 4.026-2.185 5.775a24.93 24.93 0 0 1-3.323 4.67 22.782 22.782 0 0 1-4.244 3.638 32.554 32.554 0 0 1-9.83 4.414l-.005.005a45.509 45.509 0 0 1-5.116.993c-1.303.17-2.587.276-3.842.32v7.001h-15.848v-7.001a40.979 40.979 0 0 1-3.832-.32 45.137 45.137 0 0 1-5.165-.993l-.005-.005a32.544 32.544 0 0 1-5.135-1.778 33.8 33.8 0 0 1-4.83-2.631v-.005a22.656 22.656 0 0 1-4.307-3.634 24.976 24.976 0 0 1-3.401-4.685h.005c-.998-1.749-1.739-3.677-2.233-5.765-.489-2.083-.732-4.331-.732-6.749 0-2.432.242-4.695.732-6.783.494-2.098 1.235-4.026 2.233-5.78h-.005a24.54 24.54 0 0 1 3.406-4.695 22.817 22.817 0 0 1 4.317-3.638 33.251 33.251 0 0 1 4.83-2.626 32.931 32.931 0 0 1 5.121-1.759 43.88 43.88 0 0 1 5.15-.993 39.363 39.363 0 0 1 3.852-.32v-6.957h15.848v6.959zm0 12.786v27.582a21.314 21.314 0 0 0 6.099-1.211 11.34 11.34 0 0 0 3.057-1.647 12.91 12.91 0 0 0 2.548-2.611l-.005-.005c.736-1.003 1.298-2.185 1.671-3.542v-.005c.378-1.385.572-2.97.572-4.753 0-1.788-.194-3.382-.572-4.772-.373-1.361-.935-2.544-1.671-3.546a12.911 12.911 0 0 0-2.553-2.626 11.103 11.103 0 0 0-3.048-1.647v-.005a21.478 21.478 0 0 0-6.098-1.212m-15.847 27.581v-27.582c-3.61.184-6.807 1.235-9.578 3.149-1.448 1.003-2.539 2.369-3.265 4.094-.751 1.783-1.129 3.973-1.129 6.565 0 2.568.383 4.748 1.134 6.521.732 1.725 1.827 3.091 3.275 4.089a17.302 17.302 0 0 0 4.98 2.393c1.443.432 2.969.689 4.583.771m69.963 20.785c-2.233 0-6.347-.111-9.84-.339-2.558-.165-4.801-.402-5.775-.707l-.814-.257v-14.19l1.638.751c.465.213 1.846.407 3.449.562 2.747.271 6.09.412 7.006.412 2.34 0 4.041-1.022 5.107-3.052h-.005l.019-.034-25.857-49.611-.882-1.691h17.824l.32.664 16.24 33.759 12.252-33.657.276-.765h16.957l-.659 1.599-22.296 53.991a22.31 22.31 0 0 1-1.943 3.706v.005a20.474 20.474 0 0 1-2.563 3.178 24.356 24.356 0 0 1-2.747 2.432h-.005a18.46 18.46 0 0 1-2.854 1.783c-.95.475-1.812.833-2.582 1.076h-.005c-.831.254-1.587.385-2.261.385m-139.356-.994H71.517v-1.158l-.257-224.174v-1.153h15.837v1.153l.252 182.848 23.497-24.321.344-.359h18.377l-1.827 1.952-24.219 25.852 27.412 37.518 1.347 1.841h-21.046l-.349-.509-18.536-27.276-4.99 5.145v22.64h-1.158z" clip-path="url(#b)" fill="#fff"/><path d="M57.334 140.034c.373-22.325-22.543-40.338-39.592-40.813 1.483 22.373 2.936 16.206 17.824 22.281 7.243 3.053 16.41 11.962 21.768 18.532" clip-path="url(#b)" fill-rule="evenodd" clip-rule="evenodd" fill="#fff"/><path d="M13.651 138.258c4.186.78 8.134.969 12.558 2.34 13.386 3.488 23.691 11.235 30.687 16.468-1.424-24.379-27.548-36.535-51.525-39.577l-.116 7.132c-.538 9.156 3.958 12.053 8.396 13.637m44.442-13.314C60.35 107.9 46.169 88.846 33.244 84.359c-2.306 17.417 1.381 12.965 11.08 21.298 5.213 4.467 10.208 10.833 13.769 19.287m-44.389 67.073c1.996.3 36.67 1.797 44.465 15.426 5.019-38.468-45.963-39.112-56.776-42.344.926 5.059 3.406 22.791 12.311 26.918" clip-path="url(#b)" fill-rule="evenodd" clip-rule="evenodd" fill="#fff"/><path d="M24.826 216.099c1.483.053 26.961-1.734 33.759 7.587.586-28.551-37.596-24.859-45.759-26.322 1.08 3.619 5.154 16.453 12 18.735m-14.361-54.02c3.396 1.986 35.89 2.505 47.988 21.303 4.738-34.393-38.851-40.449-56.781-43.487.925 4.617-.112 18.415 8.793 22.184m92.016-22.045c-.373-22.325 22.548-40.338 39.592-40.813-1.483 22.373-2.931 16.206-17.824 22.281-7.243 3.053-16.41 11.962-21.768 18.532" clip-path="url(#b)" fill-rule="evenodd" clip-rule="evenodd" fill="#fff"/><path d="M146.167 138.258c-4.186.78-8.135.969-12.558 2.34-13.386 3.488-23.691 11.235-30.692 16.468 1.429-24.379 27.552-36.535 51.529-39.577l.116 7.132c.538 9.156-3.958 12.053-8.395 13.637m-44.443-13.314c-2.258-17.044 11.923-36.099 24.849-40.585 2.306 17.417-1.381 12.965-11.08 21.298-5.213 4.467-10.208 10.833-13.769 19.287m44.389 67.073c-1.996.3-36.671 1.797-44.466 15.426-5.019-38.468 45.963-39.112 56.776-42.344-.925 5.059-3.406 22.791-12.31 26.918" clip-path="url(#b)" fill-rule="evenodd" clip-rule="evenodd" fill="#fff"/><path d="M134.991 216.099c-1.483.053-26.961-1.734-33.759 7.587-.586-28.551 36.753-24.786 44.921-26.249-1.08 3.619-4.317 16.38-11.162 18.662m14.361-54.02c-3.396 1.986-35.89 2.505-47.988 21.303-4.738-34.393 38.85-40.449 56.781-43.487-.926 4.617.111 18.415-8.793 22.184m-85.896-48.563c7.776-27.809-.548-31.07-8.658-38.642-5.402 11.453-2.311 11.608 3.164 20.372 3.566 5.713 3.619 12.084 5.494 18.27" clip-path="url(#b)" fill-rule="evenodd" clip-rule="evenodd" fill="#fff"/><path d="M70.664 105.381c13.745-19.326 8.653-22.887 2.829-31.758-9.041 6.792-5.46 6.826-2.67 15.629 1.818 5.737-.12 10.659-.159 16.129m27.119 8.135c-7.776-27.809.547-31.07 8.658-38.642 5.402 11.453 2.311 11.608-3.164 20.372-3.566 5.713-3.62 12.084-5.494 18.27" clip-path="url(#b)" fill-rule="evenodd" clip-rule="evenodd" fill="#fff"/><path d="M90.666 105.381c-13.319-19.326-8.386-22.887-2.742-31.758 8.759 6.792 5.29 6.826 2.587 15.629-1.764 5.737.116 10.659.155 16.129m404.114 61.562c1.633 4.937 2.093 9.462 2.437 13.919l-78.21-49.509c-8.343-5.625-13.217-5.194-21.458-.93l-65.071 31.908-65.299-39.563c-10.368-5.722-16.85-4.462-26.656.349l-75.414 34.325-1.691 11.066 77.948-33.953c9.854-4.593 14.471-6.303 25.76-.247l65.352 39.534 69.586-33.744c4.118-1.88 8.779-2.539 15.964 2.495l91.659 57.687-.043-10.649c-.005-1.012.974-13.304-2.466-24.108C448.454-18.904 229.124-42.837 122.931 63.487 250.049-35.831 436.279 10.122 494.78 166.943" clip-path="url(#b)" fill-rule="evenodd" clip-rule="evenodd" fill="#fff"/><path d="M92.172 273.352l148.779-67.246c9.215-4.065 14.171-6.158 25.46-.102l65.671 39.432 69.562-31.569c5.921-2.476 8.202-2.224 18.411 4.04l90.322 54.606v-11.526l-.005-11.521-90.312-55.342c-12.132-7.306-14.316-5.625-18.41-4.036l-69.567 32.3-65.565-39.471c-9.244-4.821-17.005-3.716-25.91.339L92.152 250.349l.02 23.003z" clip-path="url(#b)" fill-rule="evenodd" clip-rule="evenodd" fill="#fff"/><path d="M156.302 194.806l88.66-39.044c9.854-4.593 14.471-6.298 25.76-.242l65.357 39.529 69.581-33.739c4.123-1.88 8.149-2.737 18.41 4.036l85.569 53.957-.005-11.521-85.56-54.325c-10.353-6.429-14.186-5.891-18.41-4.041l-69.591 34.122-65.294-39.563c-10.373-5.722-16.85-4.457-26.661.349l-86.131 39.417-1.685 11.065z" clip-path="url(#b)" fill-rule="evenodd" clip-rule="evenodd" fill="#fff"/></svg>